
              <svg id="sw-js-blob-svg" viewBox="0 0 100 100" xmlns="http://www.w3.org/2000/svg" version="1.1">
                    <defs> 
                        <linearGradient id="sw-gradient" x1="0" x2="1" y1="1" y2="0">
                            <stop id="stop1" stop-color="rgba(248, 117, 55, 1)" offset="0%"></stop>
                            <stop id="stop2" stop-color="rgba(251, 168, 31, 1)" offset="100%"></stop>
                        </linearGradient>
                    </defs>
                <path fill="url(#sw-gradient)" d="M20.7,-22.8C28.7,-17.9,38.4,-13.2,40.4,-6.5C42.3,0.3,36.5,9,31,17.2C25.4,25.4,20.1,33.1,13.3,34.9C6.4,36.7,-2,32.6,-8.8,28.3C-15.6,24,-20.9,19.6,-27.2,13.4C-33.6,7.2,-41.1,-0.7,-40.1,-7.3C-39.2,-13.9,-29.9,-19.2,-21.8,-24.1C-13.7,-29,-6.9,-33.5,-0.3,-33.2C6.3,-32.9,12.7,-27.7,20.7,-22.8Z" width="100%" height="100%" transform="translate(50 50)" stroke-width="0" style="transition: all 0.3s ease 0s;"></path>
              </svg>